<svg xmlns="http://www.w3.org/2000/svg" viewBox="0 0 480 480" width="48" height="48"><g transform="translate(0.000000,480.000000) scale(0.100000,-0.100000)"><path d="M784 4595 c-390 -85 -560 -541 -322 -865 126 -171 388 -259 587 -197 30 9 62 17 72 17 15 0 82 -84 161 -200 18 -26 58 -82 186 -262 39 -56 72 -108 72 -116 0 -7 -20 -42 -45 -77 -194 -272 -168 -628 64 -863 34 -34 61 -68 61 -77 0 -16 -57 -118 -180 -320 -57 -93 -92 -154 -164 -280 -7 -11 -33 -57 -60 -102 l-49 -83 -51 0 c-400 -2 -635 -421 -424 -757 121 -193 411 -284 596 -187 15 8 30 14 34 14 33 0 159 117 200 185 59 99 83 241 58 358 -12 59 -76 197 -92 197 -24 0 -3 68 49 158 31 53 61 106 67 117 6 11 38 64 71 118 83 137 124 205 149 252 12 22 44 76 70 121 l47 81 107 6 c201 10 350 77 480 216 46 50 105 141 117 181 4 14 11 30 15 35 27 38 43 152 38 277 l-6 130 132 63 c72 35 266 128 430 209 164 80 303 146 308 146 6 0 33 -20 61 -44 100 -85 192 -118 326 -117 272 1 472 182 497 451 36 384 -362 658 -716 493 -147 -68 -280 -263 -280 -410 0 -50 -12 -61 -125 -113 -50 -23 -200 -96 -335 -162 -316 -156 -449 -218 -463 -218 -6 0 -32 18 -57 39 -149 126 -334 174 -566 148 l-70 -8 -58 83 c-31 46 -113 162 -182 258 -235 330 -217 287 -174 405 139 383 -229 789 -636 700z m1318 -1769 c168 -45 263 -165 262 -331 -1 -182 -130 -314 -317 -323 -140 -7 -247 56 -312 184 -75 148 -12 356 130 431 88 47 162 59 237 39z" fill="#888188"/></g></svg>